<?xml version="1.0" standalone="no"?>

<!DOCTYPE svg PUBLIC "-//W3C//DTD SVG 1.1//EN" 
"http://www.w3.org/Graphics/SVG/1.1/DTD/svg11.dtd">

<svg xmlns="http://www.w3.org/2000/svg" width="60" height="60" viewBox="0 0 60 60">
    <path fill="#FFF" fill-rule="nonzero" d="M57.273 13.636h-6.546c.818-1.363 1.091-2.727 1.091-4.09C51.818 4.363 47.455 0 42.273 0 36 0 32.182 4.364 30 8.455 27.818 4.364 24 0 17.727 0c-5.182 0-9.545 4.364-9.545 9.545 0 1.364.273 2.728 1.09 4.091H2.728C1.091 13.636 0 14.727 0 16.364V30c0 1.636 1.09 2.727 2.727 2.727h2.728v24.546c0 1.636 1.09 2.727 2.727 2.727h43.636c1.637 0 2.727-1.09 2.727-2.727V32.727h2.728C58.909 32.727 60 31.637 60 30V16.364c0-1.637-1.09-2.728-2.727-2.728zm-15-8.181c2.182 0 4.09 1.909 4.09 4.09 0 2.182-1.908 4.091-4.09 4.091h-8.728c1.364-3.272 4.091-8.181 8.728-8.181zm-28.637 4.09c0-2.181 1.91-4.09 4.091-4.09 4.637 0 7.364 4.909 8.728 8.181h-8.728c-2.182 0-4.09-1.909-4.09-4.09zm-8.181 9.546h21.818v8.182H5.455V19.09zm5.454 13.636h16.364v21.818H10.909V32.727zm38.182 21.818H32.727V32.727h16.364v21.818zm5.454-27.272H32.727V19.09h21.818v8.182z"/>
</svg>
